<?xml version="1.0" encoding="UTF-8"?>
<svg xmlns="http://www.w3.org/2000/svg" xmlns:xlink="http://www.w3.org/1999/xlink" width="108" height="18" viewBox="0 0 108 18" version="1.1">
<g id="surface1">
<path style=" stroke:none;fill-rule:nonzero;fill:rgb(74.117647%,72.54902%,77.254902%);fill-opacity:1;" d="M 42.363281 1.652344 C 42.363281 0.738281 43.097656 0 44 0 C 44.90625 0 45.644531 0.738281 45.644531 1.652344 C 45.644531 2.566406 44.90625 3.304688 44 3.304688 C 43.097656 3.304688 42.363281 2.566406 42.363281 1.652344 "/>
<path style=" stroke:none;fill-rule:nonzero;fill:rgb(74.117647%,72.54902%,77.254902%);fill-opacity:1;" d="M 68.261719 12.640625 C 68.261719 11.730469 68.996094 10.988281 69.898438 10.988281 C 70.804688 10.988281 71.542969 11.730469 71.542969 12.640625 C 71.542969 13.554688 70.804688 14.292969 69.898438 14.292969 C 68.996094 14.292969 68.261719 13.554688 68.261719 12.640625 "/>
<path style=" stroke:none;fill-rule:nonzero;fill:rgb(74.117647%,72.54902%,77.254902%);fill-opacity:1;" d="M 15.421875 11.929688 C 14.007812 11.929688 13.027344 10.800781 13.027344 9.191406 C 13.027344 7.578125 14.007812 6.453125 15.421875 6.453125 C 16.84375 6.453125 17.835938 7.578125 17.835938 9.191406 C 17.835938 10.828125 16.863281 11.929688 15.421875 11.929688 Z M 15.421875 4.046875 C 12.429688 4.046875 10.261719 6.210938 10.261719 9.191406 C 10.261719 12.171875 12.429688 14.332031 15.421875 14.332031 C 18.425781 14.332031 20.605469 12.171875 20.605469 9.191406 C 20.605469 6.210938 18.425781 4.046875 15.421875 4.046875 "/>
<path style=" stroke:none;fill-rule:nonzero;fill:rgb(74.117647%,72.54902%,77.254902%);fill-opacity:1;" d="M 39.183594 9.449219 C 39.066406 9.226562 38.933594 9.042969 38.792969 8.894531 L 38.699219 8.796875 L 38.796875 8.707031 C 38.933594 8.5625 39.074219 8.390625 39.210938 8.1875 L 41.847656 4.25 L 38.644531 4.25 L 36.660156 7.332031 C 36.550781 7.496094 36.324219 7.578125 35.984375 7.578125 L 35.53125 7.578125 L 35.53125 1.753906 C 35.53125 0.589844 34.808594 0.429688 34.027344 0.429688 L 32.691406 0.429688 L 32.691406 14.183594 L 35.53125 14.183594 L 35.53125 10.058594 L 35.796875 10.058594 C 36.121094 10.058594 36.339844 10.09375 36.441406 10.269531 L 38.007812 13.238281 C 38.445312 14.042969 38.882812 14.183594 39.703125 14.183594 L 41.878906 14.183594 L 40.257812 11.492188 L 39.183594 9.449219 "/>
<path style=" stroke:none;fill-rule:nonzero;fill:rgb(74.117647%,72.54902%,77.254902%);fill-opacity:1;" d="M 52.964844 4.023438 C 51.519531 4.023438 50.601562 4.667969 50.082031 5.214844 L 49.910156 5.390625 L 49.851562 5.152344 C 49.699219 4.566406 49.1875 4.246094 48.417969 4.246094 L 47.144531 4.246094 L 47.152344 14.179688 L 49.972656 14.179688 L 49.972656 9.601562 C 49.972656 9.152344 50.03125 8.765625 50.148438 8.410156 C 50.460938 7.339844 51.339844 6.671875 52.433594 6.671875 C 53.3125 6.671875 53.65625 7.136719 53.65625 8.34375 L 53.65625 12.667969 C 53.65625 13.695312 54.128906 14.179688 55.15625 14.179688 L 56.496094 14.179688 L 56.492188 7.863281 C 56.492188 5.351562 55.273438 4.023438 52.964844 4.023438 "/>
<path style=" stroke:none;fill-rule:nonzero;fill:rgb(74.117647%,72.54902%,77.254902%);fill-opacity:1;" d="M 44.039062 4.25 L 42.703125 4.25 L 42.710938 11.929688 L 42.710938 14.179688 L 44.136719 14.179688 C 44.152344 14.179688 44.167969 14.183594 44.1875 14.183594 L 44.851562 14.179688 L 45.511719 14.179688 L 45.511719 14.175781 L 45.515625 14.175781 L 45.523438 5.757812 C 45.523438 4.742188 45.039062 4.25 44.039062 4.25 "/>
<path style=" stroke:none;fill-rule:nonzero;fill:rgb(74.117647%,72.54902%,77.254902%);fill-opacity:1;" d="M 26.5 11.929688 C 25.085938 11.929688 24.101562 10.800781 24.101562 9.191406 C 24.101562 7.578125 25.085938 6.453125 26.5 6.453125 C 27.917969 6.453125 28.914062 7.578125 28.914062 9.191406 C 28.914062 10.828125 27.941406 11.929688 26.5 11.929688 Z M 26.5 4.046875 C 23.503906 4.046875 21.332031 6.210938 21.332031 9.191406 C 21.332031 12.171875 23.503906 14.332031 26.5 14.332031 C 29.496094 14.332031 31.679688 12.171875 31.679688 9.191406 C 31.679688 6.210938 29.496094 4.046875 26.5 4.046875 "/>
<path style=" stroke:none;fill-rule:nonzero;fill:rgb(74.117647%,72.54902%,77.254902%);fill-opacity:1;" d="M 86.9375 11.929688 C 85.527344 11.929688 84.542969 10.800781 84.542969 9.191406 C 84.542969 7.578125 85.527344 6.453125 86.9375 6.453125 C 88.359375 6.453125 89.355469 7.578125 89.355469 9.191406 C 89.355469 10.828125 88.382812 11.929688 86.9375 11.929688 Z M 86.9375 4.046875 C 83.945312 4.046875 81.773438 6.210938 81.773438 9.191406 C 81.773438 12.171875 83.945312 14.332031 86.9375 14.332031 C 89.9375 14.332031 92.121094 12.171875 92.121094 9.191406 C 92.121094 6.210938 89.9375 4.046875 86.9375 4.046875 "/>
<path style=" stroke:none;fill-rule:nonzero;fill:rgb(74.117647%,72.54902%,77.254902%);fill-opacity:1;" d="M 62.4375 11.492188 C 60.898438 11.492188 60.347656 10.140625 60.347656 8.875 C 60.347656 8.316406 60.488281 6.5 62.289062 6.5 C 63.1875 6.5 64.378906 6.757812 64.378906 8.96875 C 64.378906 11.054688 63.324219 11.492188 62.4375 11.492188 Z M 65.84375 4.222656 C 65.308594 4.222656 64.894531 4.4375 64.691406 4.828125 L 64.613281 4.980469 L 64.480469 4.867188 C 64.027344 4.472656 63.210938 4.003906 61.886719 4.003906 C 59.25 4.003906 57.472656 5.992188 57.472656 8.949219 C 57.472656 11.90625 59.308594 13.96875 61.9375 13.96875 C 62.835938 13.96875 63.546875 13.761719 64.109375 13.332031 L 64.324219 13.167969 L 64.324219 13.445312 C 64.324219 14.769531 63.46875 15.503906 61.921875 15.503906 C 61.167969 15.503906 60.484375 15.320312 60.027344 15.152344 C 59.425781 14.972656 59.078125 15.121094 58.835938 15.722656 L 58.609375 16.28125 L 58.292969 17.089844 L 58.488281 17.195312 C 59.480469 17.726562 60.773438 18.039062 61.9375 18.039062 C 64.339844 18.039062 67.144531 16.804688 67.144531 13.332031 L 67.152344 4.222656 L 65.84375 4.222656 "/>
<path style=" stroke:none;fill-rule:nonzero;fill:rgb(74.117647%,72.54902%,77.254902%);fill-opacity:1;" d="M 4.921875 11.8125 L 2.625 11.8125 L 2.625 9.058594 C 2.625 8.46875 2.851562 8.160156 3.355469 8.089844 L 4.921875 8.089844 C 6.039062 8.089844 6.761719 8.796875 6.761719 9.941406 C 6.761719 11.117188 6.054688 11.8125 4.921875 11.816406 Z M 2.625 4.382812 L 2.625 3.65625 C 2.625 3.023438 2.894531 2.71875 3.480469 2.679688 L 4.65625 2.679688 C 5.660156 2.679688 6.265625 3.285156 6.265625 4.300781 C 6.265625 5.070312 5.851562 5.972656 4.691406 5.972656 L 2.625 5.972656 Z M 7.851562 7.132812 L 7.4375 6.898438 L 7.800781 6.585938 C 8.222656 6.222656 8.925781 5.40625 8.925781 3.992188 C 8.925781 1.832031 7.257812 0.4375 4.671875 0.4375 L 1.722656 0.4375 L 1.722656 0.433594 L 1.386719 0.433594 C 0.621094 0.464844 0.0078125 1.089844 0 1.863281 L 0 14.132812 L 1.355469 14.132812 C 1.355469 14.132812 1.359375 14.132812 1.359375 14.132812 L 4.730469 14.132812 C 7.605469 14.132812 9.457031 12.5625 9.457031 10.128906 C 9.457031 8.820312 8.859375 7.699219 7.851562 7.132812 "/>
<path style=" stroke:none;fill-rule:nonzero;fill:rgb(74.117647%,72.54902%,77.254902%);fill-opacity:1;" d="M 104.71875 4.058594 C 103.546875 4.058594 102.417969 4.605469 101.691406 5.53125 L 101.484375 5.789062 L 101.324219 5.5 C 100.804688 4.542969 99.902344 4.058594 98.65625 4.058594 C 97.34375 4.058594 96.464844 4.792969 96.054688 5.226562 L 95.789062 5.519531 L 95.6875 5.136719 C 95.539062 4.585938 95.050781 4.28125 94.308594 4.28125 L 93.125 4.28125 L 93.113281 14.175781 L 95.804688 14.175781 L 95.804688 9.808594 C 95.804688 9.425781 95.855469 9.046875 95.949219 8.652344 C 96.207031 7.597656 96.914062 6.460938 98.101562 6.574219 C 98.832031 6.644531 99.191406 7.214844 99.191406 8.3125 L 99.191406 14.175781 L 101.902344 14.175781 L 101.902344 9.808594 C 101.902344 9.332031 101.945312 8.972656 102.054688 8.613281 C 102.273438 7.605469 103.011719 6.574219 104.15625 6.574219 C 104.984375 6.574219 105.292969 7.046875 105.292969 8.3125 L 105.292969 12.730469 C 105.292969 13.730469 105.734375 14.175781 106.730469 14.175781 L 107.996094 14.175781 L 108 7.859375 C 108 5.335938 106.894531 4.058594 104.714844 4.058594 "/>
<path style=" stroke:none;fill-rule:nonzero;fill:rgb(74.117647%,72.54902%,77.254902%);fill-opacity:1;" d="M 80.214844 10.742188 C 80.207031 10.75 79.050781 11.976562 77.523438 11.976562 C 76.132812 11.976562 74.730469 11.121094 74.730469 9.210938 C 74.730469 7.558594 75.816406 6.40625 77.375 6.40625 C 77.882812 6.40625 78.457031 6.589844 78.546875 6.894531 L 78.5625 6.945312 C 78.769531 7.640625 79.398438 7.679688 79.519531 7.679688 L 80.996094 7.679688 L 80.996094 6.382812 C 80.996094 4.675781 78.832031 4.058594 77.375 4.058594 C 74.261719 4.058594 72.003906 6.234375 72.003906 9.230469 C 72.003906 12.226562 74.238281 14.402344 77.320312 14.402344 C 79.992188 14.402344 81.445312 12.636719 81.460938 12.617188 L 81.539062 12.523438 L 80.371094 10.578125 L 80.214844 10.742188 "/>
</g>
</svg>