<svg width="680" height="193" xmlns="http://www.w3.org/2000/svg" viewBox="0 0 680 192.84"><g fill="#BDB9C5"><path d="m669.71 182.24v1.91h-2.42v8.66h-2.29v-8.66h-2.57v-1.91zm7.95 0-2.31 5.85-2.35-5.86h-2.35v10.58h2.35v-5.87l2.11 5.22h.4l2.11-5.22v5.87h2.38v-10.58z"/><path d="m55 0h-55s6.21 8.93 6.21 25.91v140.64c0 17-6.21 25.91-6.21 25.91h41.12s-6.21-8.93-6.21-25.91v-40.07h20.09a37.81 37.81 0 0 0 37.81-37.78v-50.92a37.82 37.82 0 0 0 -37.81-37.78zm9.08 89.23a13.7 13.7 0 0 1 -13.68 13.68h-15.49v-79.34h15.53a13.7 13.7 0 0 1 13.68 13.69zm142.19-44.37a37.83 37.83 0 0 0 -37.78-37.79h-14.12a37.83 37.83 0 0 0 -37.79 37.79v121.69c0 17-6.21 25.91-6.21 25.91h41.12s-6.21-8.93-6.21-25.91v-33.1h32.29v33.1c0 17-6.21 25.91-6.21 25.91h41.12s-6.21-8.93-6.21-25.91zm-61 65.15v-65.75a13.7 13.7 0 0 1 13.73-13.68h4.93a13.7 13.7 0 0 1 13.68 13.68v65.74zm298.08 30.65a37.58 37.58 0 0 0 -9.46-24.93 37.67 37.67 0 0 0 11.47-27.06v-43.81a37.84 37.84 0 0 0 -37.78-37.79h-55s6.18 8.93 6.18 25.93v133.55c0 17-6.21 25.91-6.21 25.91h41.12s-6.21-8.93-6.21-25.91v-40.09h13.6a13.68 13.68 0 0 1 13.61 13.67v38.13c.69 9.64 5.28 14.2 5.28 14.2h29.63s-6.22-8.93-6.22-25.91zm-40.35-110.01a13.7 13.7 0 0 1 13.68 13.67v44.88a13.7 13.7 0 0 1 -13.61 13.68h-15.6v-72.23zm-112.83-23.58h-55s6.18 8.93 6.18 25.93v133.55c0 17-6.22 25.91-6.22 25.91h55a37.82 37.82 0 0 0 37.87-37.78v-109.82a37.83 37.83 0 0 0 -37.83-37.79zm9.08 148.14a13.69 13.69 0 0 1 -13.68 13.68h-15.57v-138.24h15.53a13.69 13.69 0 0 1 13.68 13.68zm363.13-46.53v55a29.19 29.19 0 0 1 -29.15 29.16h-26.31a29.19 29.19 0 0 1 -29.15-29.16v-24.76h30.06s-4.56 3.92-4.56 20.9v.88a8.67 8.67 0 0 0 8.65 8.66h13.08a8.68 8.68 0 0 0 8.66-8.66v-48.31a4.07 4.07 0 0 0 -4.07-4.06h-29.7a23.83 23.83 0 0 1 -23.8-23.8v-55a29.2 29.2 0 0 1 29.16-29.19h26.3a29.2 29.2 0 0 1 29.16 29.16v24.22h-30.06s4.56-3.92 4.56-20.9v-.88a8.66 8.66 0 0 0 -8.66-8.66h-13.11a8.67 8.67 0 0 0 -8.66 8.66v48.88a4.07 4.07 0 0 0 4.07 4.06h29.73a23.82 23.82 0 0 1 23.8 23.8zm-155.72-78.1v57.52h10.68c17 0 25.89-6.21 25.89-6.21v35.84s-8.93-6.2-25.89-6.2h-10.68v57.47h22.51c13.68 0 21.72-6 21.72-6l-4.8 29.41h-74.31s6.21-8.92 6.21-25.88v-133.53c0-17-6.21-25.88-6.21-25.88h74.31l4.8 29.41s-8-6-21.72-6z"/></g></svg>