<svg width="164" height="41" viewBox="0 0 164 41" fill="none" xmlns="http://www.w3.org/2000/svg">
<path d="M52.9611 16.0512C52.9611 13.1073 50.1081 10.02 45.1493 10.02C39.5884 10.02 33.4829 14.0733 32.548 22.1633C31.5926 30.3323 36.7057 33.9624 41.8596 33.9624C47.0135 33.9624 49.7122 31.9662 52.4723 29.3039C50.0988 26.3416 47.034 27.7105 46.4467 28.0123C45.4744 28.5486 44.3734 28.8137 43.261 28.7795C41.2723 28.7795 39.2427 27.8927 39.2427 24.2018C51.9853 22.9507 52.9592 18.9766 52.9592 16.0512H52.9611ZM46.6455 16.535C46.5637 17.4421 46.1995 18.995 39.7464 19.8652C41.1031 15.0631 43.7052 14.7025 44.9003 14.7025C45.1425 14.6916 45.3842 14.7324 45.6091 14.8221C45.834 14.9119 46.0367 15.0485 46.2035 15.2227C46.3703 15.3969 46.4973 15.6046 46.5758 15.8317C46.6543 16.0587 46.6825 16.2999 46.6585 16.5387L46.6455 16.535ZM25.0634 17.3225L22.1007 26.5808L20.0098 10.5057C15.3447 10.5057 12.8356 13.8139 11.5271 17.3023L7.91396 26.6011L7.40656 17.4016C7.13149 13.1257 3.18752 10.5241 0 10.5241L3.85476 33.7803C8.7429 33.7619 11.3821 30.4722 12.7631 26.9838L15.8186 19.0778C15.8465 19.3997 17.93 33.7821 17.93 33.7821C22.8405 33.7821 25.4797 30.6966 26.8941 27.3278L33.7709 10.526C28.9293 10.526 26.3774 13.8139 25.0596 17.3225H25.0634ZM70.9822 9.96298C67.9582 9.96298 65.648 11.5968 63.6964 13.996V13.9776L65.4398 0C61.4215 0 58.154 3.47003 57.5258 8.63274L54.5037 33.6C56.8177 33.6 59.2729 32.9339 60.5925 31.2394C61.7709 32.7518 63.5347 33.9624 66.1535 33.9624C72.93 33.9624 77.5784 26.1374 77.5784 18.7944C77.5375 12.0972 74.27 9.98138 71.0026 9.98138L70.9822 9.96298ZM70.3502 21.9645C69.644 26.0583 67.3467 28.842 65.1368 28.842C62.927 28.842 61.9512 27.854 61.9512 27.854C62.3787 24.2662 62.6426 22.0657 63.4529 20.1688C64.2633 18.2719 66.1925 15.2471 68.2017 15.2471C70.1718 15.2471 71.0639 17.8487 70.3521 21.9627L70.3502 21.9645ZM94.4787 10.5076H89.7504L89.769 10.2647C90.0943 7.19947 90.8247 5.58589 93.2334 5.32279C94.8783 5.16088 95.6087 4.31453 95.7909 3.38723L96.3801 0.139832C86.9012 0.0791155 83.9014 4.15078 83.1375 10.3659L83.1189 10.5076H83.0167C81.474 10.5076 79.7715 12.2426 79.4853 14.4413L79.3831 15.2471H82.5501L79.8923 37.0682L79.0783 40.9816C79.1805 40.9816 79.3013 41 79.4017 41C83.8437 40.8381 86.6874 37.3497 87.3156 32.2863L89.3898 15.2434H90.8767C92.3376 15.2434 94.0438 13.7899 94.3412 11.3705L94.4787 10.5076ZM119.072 10.1028C113.613 10.1028 108.459 14.0954 106.879 20.3694C105.3 26.6434 107.693 34.0636 115.726 34.0636C123.759 34.0636 128.359 26.3361 128.359 19.9039C128.367 13.5103 124.006 10.101 119.074 10.101L119.072 10.1028ZM121.284 21.7603C121.001 24.6048 119.741 28.9212 116.291 28.9212C112.842 28.9212 113.308 23.8799 113.643 21.4788C114.009 18.9177 115.449 15.2674 118.553 15.2674C121.345 15.2674 121.607 18.5552 121.285 21.7622L121.284 21.7603ZM155.333 17.3023L152.371 26.5606C152.291 25.8338 150.282 10.4855 150.282 10.4855C145.616 10.4855 143.119 13.7936 141.81 17.282L138.197 26.5808C138.178 25.9148 137.69 17.3814 137.69 17.3814C137.396 13.1055 133.456 10.5039 130.255 10.5039L134.089 33.7601C138.978 33.7417 141.617 30.4519 142.998 26.9635L146.042 19.0575C146.061 19.3795 148.153 33.7619 148.153 33.7619C153.064 33.7619 155.692 30.6764 157.118 27.3076L164 10.5057C159.171 10.5057 156.614 13.7936 155.315 17.3023H155.333ZM98.9431 0.136154L94.9657 32.0214L94.1516 35.955C94.252 35.955 94.3746 35.9734 94.475 35.9734C98.7535 35.9127 101.798 32.1833 102.369 27.4824L104.66 9.18839C105.355 3.60065 102.008 0.132473 98.9431 0.132473V0.136154Z" fill="#BDB9C5"/>
</svg>