<svg fill="none" height="1407" viewBox="0 0 889 1407" width="889" xmlns="http://www.w3.org/2000/svg" xmlns:xlink="http://www.w3.org/1999/xlink"><linearGradient id="a" gradientUnits="userSpaceOnUse" x1="604.607" x2="54.9882" y1="770.017" y2="81.269"><stop offset="0" stop-color="#8920fe"/><stop offset="1" stop-color="#6284f9"/></linearGradient><linearGradient id="b" gradientUnits="userSpaceOnUse" x1="857.153" x2="-388.579" y1="278.084" y2="1510.04"><stop offset="0" stop-color="#8920fe" stop-opacity="0"/><stop offset=".471595" stop-color="#f928c6" stop-opacity=".54"/><stop offset="1" stop-color="#ff7e5b"/></linearGradient><clipPath id="c"><path d="m0 0h1792.47v983h-1792.47z" transform="matrix(-.2239816 .97459337 -.97459337 -.2239816 888.86 19.6189)"/></clipPath><g clip-path="url(#c)"><path d="m-69.1664-200.551-401.4726 1746.931 366.646 84.26c34.5267 7.94 70.4977 7.03 104.581134-2.63l350.470866-99.37c50.894-14.43 91.18-53.39 107.307-103.77l353.835-1105.403c16.286-50.881 5.74-106.546-28.03-147.943l-153.849-188.5971c-14.787-18.1268-35.191-30.8114-57.989-36.0509z" fill="url(#a)"/><path d="m-68.8009-200.467-401.4731 1746.937 366.646 84.26c34.5272 7.93 70.4982 7.03 104.581612-2.64l350.470388-99.37c50.894-14.43 91.18-53.39 107.308-103.77l353.834-1105.399c16.287-50.881 5.74-106.546-28.029-147.943l-153.849-188.5971c-14.787-18.1268-35.191-30.8114-57.99-36.051z" fill="url(#b)"/></g></svg>