<svg width="77" height="16" viewBox="0 0 77 16" fill="none" xmlns="http://www.w3.org/2000/svg">
<g clip-path="url(#clip0)">
<path d="M19.3138 7.17608L14.1219 1.9842C14.0382 1.90548 13.9276 1.86165 13.8126 1.86165C13.6977 1.86165 13.5871 1.90548 13.5034 1.9842L12.4831 3.00452L16.6546 7.17608C16.6954 7.21658 16.7278 7.26475 16.7499 7.31783C16.7721 7.37091 16.7834 7.42783 16.7834 7.48533C16.7834 7.54283 16.7721 7.59976 16.7499 7.65283C16.7278 7.70591 16.6954 7.75409 16.6546 7.79459L12.3657 12.0835L13.386 13.1038C13.4697 13.1826 13.5803 13.2264 13.6953 13.2264C13.8102 13.2264 13.9208 13.1826 14.0045 13.1038L19.3138 7.79459C19.3925 7.71086 19.4363 7.60026 19.4363 7.48533C19.4363 7.37041 19.3925 7.25981 19.3138 7.17608Z" fill="#009C9C"/>
<path d="M10.4695 2.36118L10.0926 1.9842C10.0088 1.90548 9.89823 1.86165 9.78331 1.86165C9.66838 1.86165 9.55778 1.90548 9.47405 1.9842L8.45374 3.00452L9.13094 3.68172L10.4605 5.01129L11.7878 3.68172L10.4695 2.36118Z" fill="#40E3E3"/>
<path d="M10.3431 10.0745L9.01579 11.4041L8.33859 12.0813L9.35891 13.1016C9.44264 13.1803 9.55324 13.2241 9.66816 13.2241C9.78309 13.2241 9.89369 13.1803 9.97742 13.1016L10.3521 12.7246L11.6817 11.395L10.3431 10.0745Z" fill="#40E3E3"/>
<path d="M12.6253 7.17606C12.704 7.25979 12.7478 7.37039 12.7478 7.48532C12.7478 7.60025 12.704 7.71084 12.6253 7.79457L10.3431 10.0745L11.6727 11.4041L15.2844 7.79232C15.3252 7.75182 15.3576 7.70364 15.3797 7.65056C15.4018 7.59749 15.4132 7.54056 15.4132 7.48306C15.4132 7.42557 15.4018 7.36864 15.3797 7.31556C15.3576 7.26248 15.3252 7.2143 15.2844 7.17381L11.7991 3.69073L10.4695 5.02031L12.6253 7.17606Z" fill="#1ABAB8"/>
<path d="M4.15802 7.30023L7.76976 3.68849L6.44019 2.35892L6.06096 1.9842C5.97723 1.90548 5.86663 1.86165 5.7517 1.86165C5.63678 1.86165 5.52618 1.90548 5.44245 1.9842L0.128679 7.30023C0.087865 7.34073 0.0554713 7.38891 0.0333652 7.44198C0.0112591 7.49506 -0.00012207 7.55199 -0.00012207 7.60948C-0.00012207 7.66698 0.0112591 7.72391 0.0333652 7.77699C0.0554713 7.83007 0.087865 7.87824 0.128679 7.91874L5.32055 13.1106C5.40428 13.1893 5.51488 13.2332 5.62981 13.2332C5.74473 13.2332 5.85533 13.1893 5.93906 13.1106L6.32055 12.7336L7.65012 11.4041L4.15802 7.91874C4.11721 7.87824 4.08482 7.83007 4.06271 7.77699C4.0406 7.72391 4.02922 7.66698 4.02922 7.60948C4.02922 7.55199 4.0406 7.49506 4.06271 7.44198C4.08482 7.38891 4.11721 7.34073 4.15802 7.30023Z" fill="#87F0F0"/>
<path d="M8.18736 7.30022L9.78329 5.70654L8.45372 4.37697L7.77652 3.69977L4.16478 7.31151C4.12397 7.35201 4.09157 7.40018 4.06947 7.45326C4.04736 7.50634 4.03598 7.56326 4.03598 7.62076C4.03598 7.67826 4.04736 7.73519 4.06947 7.78826C4.09157 7.84134 4.12397 7.88952 4.16478 7.93002L7.64334 11.4041L8.32054 10.7269L9.65011 9.39729L8.17833 7.92776C8.0996 7.84403 8.05577 7.73343 8.05577 7.6185C8.05577 7.50358 8.0996 7.39298 8.17833 7.30925" fill="#40E3E3"/>
<path d="M8.18737 7.91873L9.65916 9.38826L11.2528 7.79458C11.2936 7.75408 11.326 7.7059 11.3481 7.65283C11.3703 7.59975 11.3816 7.54282 11.3816 7.48532C11.3816 7.42783 11.3703 7.3709 11.3481 7.31782C11.326 7.26474 11.2936 7.21657 11.2528 7.17607L9.78331 5.70654L8.18737 7.30022C8.10865 7.38395 8.06482 7.49455 8.06482 7.60948C8.06482 7.7244 8.10865 7.83501 8.18737 7.91873Z" fill="#17CFCF"/>
<path d="M23.4763 6.07448C23.491 5.48692 23.6079 4.9064 23.8217 4.35891C24.0218 3.85434 24.33 3.39974 24.7246 3.02708C25.1468 2.64198 25.644 2.3484 26.1851 2.16477C26.8404 1.94969 27.5272 1.84667 28.2167 1.86003C28.9846 1.83521 29.7502 1.95466 30.4741 2.21218C30.993 2.4038 31.4716 2.69091 31.8849 3.05868C32.2013 3.34045 32.4525 3.68789 32.6208 4.07674C32.7426 4.36026 32.8232 4.65976 32.8601 4.96613C32.8666 5.02263 32.8593 5.07986 32.8388 5.13293C32.8184 5.186 32.7854 5.23333 32.7427 5.27087C32.6587 5.34718 32.5491 5.38909 32.4357 5.38825H31.1671C31.068 5.39288 30.9705 5.36251 30.8917 5.30247C30.8306 5.25326 30.7806 5.19173 30.7449 5.12189C30.7224 5.08125 30.6682 4.9887 30.5801 4.84649C30.4638 4.67808 30.3204 4.53011 30.1558 4.40857C29.9243 4.2366 29.6687 4.09968 29.3973 4.00225C29.0196 3.8708 28.621 3.8096 28.2212 3.82166C27.5368 3.78763 26.8648 4.01429 26.3409 4.45597C26.1048 4.67185 25.916 4.93439 25.7867 5.22698C25.6573 5.51957 25.59 5.83583 25.5892 6.15575C25.5666 6.55304 25.5576 6.97967 25.5576 7.4334C25.5576 7.88712 25.5576 8.31376 25.5892 8.71105C25.6185 9.57787 25.8713 10.2077 26.3409 10.5982C26.8763 11.0111 27.5415 11.2192 28.2167 11.1851C28.5758 11.1879 28.9338 11.1455 29.2822 11.0587C29.587 10.9841 29.8724 10.8456 30.1196 10.6524C30.3621 10.454 30.5507 10.1978 30.6682 9.90744C30.8077 9.54793 30.8745 9.16428 30.8646 8.77877V8.64559H28.9526C28.8969 8.64647 28.8416 8.63568 28.7902 8.61391C28.7389 8.59213 28.6927 8.55987 28.6546 8.51918C28.6149 8.48097 28.5833 8.43502 28.562 8.38417C28.5406 8.33331 28.5299 8.27862 28.5305 8.22346V7.1106C28.5316 6.9988 28.5764 6.89187 28.6553 6.8126C28.7341 6.73332 28.8408 6.68798 28.9526 6.68622H32.5643C32.6761 6.68798 32.7828 6.73332 32.8617 6.8126C32.9405 6.89187 32.9853 6.9988 32.9865 7.1106V8.83295C32.993 9.42337 32.892 10.0101 32.6885 10.5643C32.493 11.0778 32.1844 11.5407 31.7856 11.9187C31.3586 12.322 30.8508 12.6298 30.2957 12.8217C28.9443 13.2445 27.4959 13.2445 26.1445 12.8217C25.6054 12.6432 25.1111 12.3506 24.6953 11.9639C24.3053 11.5821 24.0033 11.1199 23.8104 10.6095C23.6006 10.0556 23.4862 9.47019 23.4718 8.87809C23.4718 8.67945 23.4537 8.46048 23.4492 8.22121C23.4447 7.98193 23.4492 7.73362 23.4492 7.48306C23.4492 7.23249 23.4492 6.9887 23.4492 6.74717C23.4492 6.50563 23.4628 6.2957 23.4718 6.08802" fill="#424A52"/>
<path d="M37.8127 6.56208C37.5475 6.55461 37.2836 6.59988 37.0361 6.69526C36.8361 6.77423 36.653 6.89069 36.4966 7.03838C36.3549 7.17281 36.24 7.3329 36.158 7.51016C36.0856 7.66624 36.0361 7.832 36.0113 8.00226H39.5508C39.5282 7.83473 39.4888 7.66988 39.4334 7.51016C39.3749 7.3342 39.2786 7.17317 39.1513 7.03838C39.0058 6.88798 38.8294 6.77091 38.6343 6.69526C38.3718 6.5974 38.0926 6.55215 37.8127 6.56208ZM33.9752 8.91197C33.9711 8.35017 34.0611 7.79166 34.2415 7.2596C34.4057 6.76198 34.6665 6.3017 35.009 5.9052C35.3461 5.52244 35.7599 5.21481 36.2235 5.00226C36.7204 4.78025 37.2594 4.66858 37.8036 4.67495C38.3472 4.668 38.8859 4.77729 39.3838 4.99549C39.8503 5.19876 40.2699 5.49616 40.6163 5.86908C40.9558 6.23694 41.2196 6.668 41.3928 7.1377C41.5765 7.62619 41.6698 8.14403 41.6682 8.66592V9.37021C41.6664 9.48222 41.6212 9.58915 41.542 9.66836C41.4627 9.74757 41.3558 9.79284 41.2438 9.79459H36.0113C36.006 10.015 36.0565 10.2332 36.158 10.4289C36.2578 10.6066 36.3949 10.7607 36.5598 10.8804C36.7336 11.0089 36.9295 11.1046 37.1377 11.1625C37.3582 11.2239 37.586 11.2551 37.8149 11.2551C38.0901 11.2628 38.3649 11.2286 38.6298 11.1535C38.8153 11.0973 38.9901 11.0104 39.1467 10.8962C39.2344 10.8285 39.329 10.7702 39.4289 10.7224C39.5241 10.6868 39.6254 10.6707 39.7269 10.6749H40.9797C41.0944 10.6766 41.2041 10.7218 41.2867 10.8014C41.3283 10.8383 41.3606 10.8846 41.381 10.9363C41.4014 10.9881 41.4093 11.0439 41.4041 11.0993C41.3689 11.3042 41.2853 11.4977 41.1603 11.6637C40.977 11.9282 40.7476 12.1576 40.4831 12.3409C40.136 12.5823 39.7558 12.7724 39.3544 12.9052C38.8563 13.0677 38.3342 13.144 37.8104 13.1309C37.2685 13.1369 36.731 13.0333 36.2303 12.8262C35.7635 12.633 35.3456 12.3385 35.0068 11.9639C34.6646 11.5722 34.4037 11.1164 34.2393 10.623C34.0555 10.07 33.9655 9.49016 33.9729 8.90745" fill="#424A52"/>
<path d="M45.4199 10.0406C45.4049 10.3223 45.4978 10.5991 45.6795 10.8149C45.851 11.009 46.1716 11.1061 46.6434 11.1061H47.5982C47.71 11.1073 47.8169 11.152 47.8962 11.2309C47.9755 11.3097 48.0208 11.4164 48.0226 11.5282V12.5621C48.0208 12.6741 47.9756 12.781 47.8964 12.8602C47.8172 12.9394 47.7102 12.9847 47.5982 12.9865H46.4379C45.4552 12.9865 44.7028 12.7487 44.1806 12.2731C43.6584 11.7976 43.3951 11.0692 43.3905 10.088V6.71783H42.3477C42.2923 6.71854 42.2374 6.70766 42.1864 6.68589C42.1355 6.66412 42.0897 6.63194 42.0519 6.59142C42.0111 6.55393 41.9787 6.50817 41.9569 6.45718C41.9351 6.4062 41.9244 6.35115 41.9255 6.29571V5.25959C41.9248 5.20422 41.9357 5.1493 41.9575 5.09838C41.9792 5.04745 42.0114 5.00164 42.0519 4.96388C42.09 4.9238 42.1359 4.89191 42.1868 4.87018C42.2376 4.84844 42.2924 4.83731 42.3477 4.83747H43.3838V2.28217C43.3855 2.17076 43.4305 2.0644 43.5093 1.98561C43.5881 1.90683 43.6945 1.86179 43.8059 1.86005H44.9978C45.1092 1.86179 45.2155 1.90683 45.2943 1.98561C45.3731 2.0644 45.4181 2.17076 45.4199 2.28217V4.83747H47.4515C47.5597 4.84374 47.6616 4.89076 47.7365 4.96908C47.8115 5.04739 47.854 5.15119 47.8556 5.25959V6.29571C47.8538 6.40712 47.8088 6.51348 47.73 6.59227C47.6512 6.67105 47.5448 6.71609 47.4334 6.71783H45.4018L45.4199 10.0406Z" fill="#424A52"/>
<path d="M55.7156 8.89616L53.991 4.42889L52.2686 8.89616H55.7156ZM54.8533 2.0158C54.9219 2.0108 54.9908 2.02005 55.0557 2.04297C55.1206 2.06589 55.18 2.10199 55.2303 2.14898C55.3312 2.26595 55.4079 2.40174 55.456 2.54853L59.2935 12.4537C59.3038 12.4889 59.3091 12.5254 59.3093 12.5621C59.3075 12.6741 59.2623 12.781 59.183 12.8602C59.1038 12.9394 58.9969 12.9847 58.8849 12.9865H57.7562C57.6777 12.9946 57.5983 12.9871 57.5227 12.9642C57.4471 12.9413 57.3769 12.9036 57.316 12.8533C57.2423 12.7789 57.184 12.6907 57.1445 12.5937L56.4673 10.8555H51.5169L50.8397 12.5937C50.8002 12.6907 50.7419 12.7789 50.6682 12.8533C50.6073 12.9036 50.5371 12.9413 50.4615 12.9642C50.3859 12.9871 50.3065 12.9946 50.228 12.9865H49.0993C48.9877 12.9841 48.8813 12.9386 48.8026 12.8595C48.7239 12.7803 48.6789 12.6737 48.6772 12.5621C48.6763 12.5253 48.6816 12.4887 48.693 12.4537L52.5305 2.54853C52.5786 2.40174 52.6553 2.26595 52.7562 2.14898C52.8065 2.10199 52.8659 2.06589 52.9308 2.04297C52.9956 2.02005 53.0646 2.0108 53.1332 2.0158H54.8533Z" fill="#424A52"/>
<path d="M66.0113 9.34989C66.0429 9.0588 66.0429 8.76514 66.0113 8.47405C65.9503 7.79685 65.7404 7.30475 65.386 7.00904C65.0214 6.70645 64.5595 6.54608 64.0858 6.55757C63.6136 6.54269 63.1527 6.70357 62.7923 7.00904C62.6111 7.1753 62.4645 7.37578 62.3611 7.59893C62.2576 7.82208 62.1994 8.0635 62.1896 8.30926C62.1656 8.50696 62.155 8.70607 62.158 8.9052C62.1549 9.10433 62.1655 9.30345 62.1896 9.50114C62.2167 9.99114 62.4328 10.4515 62.7923 10.7856C63.148 11.1011 63.6106 11.269 64.0858 11.2551C64.5595 11.2666 65.0214 11.1062 65.386 10.8036C65.7404 10.5079 65.9503 10.0181 66.0113 9.33861V9.34989ZM64.5598 13.1422C64.2675 13.1454 63.9758 13.1143 63.6908 13.0497C63.4579 12.9976 63.231 12.922 63.0136 12.8239C62.8406 12.7369 62.6778 12.6309 62.5282 12.5079C62.4111 12.4153 62.3017 12.3134 62.2009 12.2032V15.5395C62.1992 15.6515 62.1539 15.7585 62.0747 15.8377C61.9955 15.9169 61.8885 15.9621 61.7765 15.9639H60.5869C60.4749 15.9621 60.368 15.9169 60.2888 15.8377C60.2096 15.7585 60.1643 15.6515 60.1625 15.5395V5.2596C60.1649 5.14799 60.2104 5.04163 60.2895 4.9629C60.3687 4.88417 60.4753 4.83921 60.5869 4.83748H61.7765C61.8882 4.83921 61.9948 4.88417 62.0739 4.9629C62.1531 5.04163 62.1986 5.14799 62.2009 5.2596V5.62077C62.3017 5.51059 62.4111 5.40868 62.5282 5.31603C62.6811 5.19562 62.8469 5.09265 63.0226 5.00904C63.2401 4.91098 63.467 4.83534 63.6998 4.7833C63.9849 4.71864 64.2766 4.68758 64.5689 4.69075C65.0584 4.68367 65.5431 4.78787 65.9865 4.99549C66.3986 5.1907 66.7665 5.46799 67.0677 5.81039C67.3705 6.1579 67.6096 6.556 67.7743 6.98646C67.9462 7.42941 68.0439 7.89771 68.0632 8.37247C68.0745 8.52822 68.079 8.71107 68.079 8.921C68.079 9.13093 68.079 9.31378 68.0632 9.46953C68.0439 9.94429 67.9462 10.4126 67.7743 10.8555C67.6096 11.286 67.3705 11.6841 67.0677 12.0316C66.7665 12.374 66.3986 12.6513 65.9865 12.8465C65.5396 13.0524 65.0517 13.1535 64.5598 13.1422Z" fill="#424A52"/>
<path d="M74.8691 9.3499C74.9006 9.0588 74.9006 8.76515 74.8691 8.47405C74.8059 7.79685 74.5982 7.30475 74.2415 7.00904C73.8773 6.70572 73.4152 6.54526 72.9413 6.55757C72.4691 6.54269 72.0082 6.70357 71.6479 7.00904C71.4666 7.1753 71.32 7.37578 71.2166 7.59893C71.1132 7.82208 71.0549 8.0635 71.0451 8.30927C71.0222 8.50706 71.0117 8.70609 71.0135 8.9052C71.0116 9.10431 71.0222 9.30335 71.0451 9.50114C71.0723 9.99114 71.2883 10.4515 71.6479 10.7856C72.0035 11.1011 72.4661 11.269 72.9413 11.2551C73.4152 11.2674 73.8773 11.1069 74.2415 10.8036C74.5982 10.5079 74.8059 10.0181 74.8691 9.33861V9.3499ZM73.4108 13.1309C73.1185 13.134 72.8269 13.1029 72.5418 13.0384C72.309 12.986 72.0822 12.9104 71.8646 12.8127C71.6896 12.7291 71.5245 12.6261 71.3725 12.5057C71.2547 12.413 71.1445 12.3111 71.0429 12.2009V15.5395C71.0432 15.5952 71.0322 15.6503 71.0105 15.7015C70.9887 15.7528 70.9567 15.799 70.9165 15.8375C70.8785 15.8777 70.8326 15.9096 70.7817 15.9314C70.7309 15.9531 70.6761 15.9642 70.6208 15.9639H69.4289C69.3171 15.9621 69.2104 15.9168 69.1316 15.8375C69.0527 15.7582 69.0079 15.6513 69.0068 15.5395V5.2596C69.0085 5.14819 69.0535 5.04184 69.1323 4.96305C69.2111 4.88426 69.3175 4.83923 69.4289 4.83748H70.6208C70.732 4.83979 70.838 4.885 70.9167 4.96367C70.9954 5.04234 71.0406 5.14837 71.0429 5.2596V5.62078C71.1445 5.51062 71.2547 5.40872 71.3725 5.31604C71.5245 5.19561 71.6896 5.09263 71.8646 5.00904C72.0822 4.91134 72.309 4.83571 72.5418 4.78331C72.8269 4.71876 73.1185 4.6877 73.4108 4.69076C73.9011 4.68365 74.3866 4.78784 74.8307 4.9955C75.2423 5.19156 75.6101 5.46874 75.912 5.81039C76.214 6.15799 76.4524 6.55611 76.6163 6.98647C76.7882 7.42941 76.8858 7.89771 76.9052 8.37247C76.9165 8.52823 76.921 8.71107 76.921 8.921C76.921 9.13094 76.921 9.31378 76.9052 9.46954C76.8858 9.94429 76.7882 10.4126 76.6163 10.8555C76.4524 11.2859 76.214 11.684 75.912 12.0316C75.6101 12.3733 75.2423 12.6504 74.8307 12.8465C74.3866 13.0542 73.9011 13.1584 73.4108 13.1513" fill="#424A52"/>
</g>
<defs>
<clipPath id="clip0">
<rect width="76.9955" height="16" fill="white"/>
</clipPath>
</defs>
</svg>