<svg height="40" viewBox="0 0 140 40" width="140" xmlns="http://www.w3.org/2000/svg" xmlns:xlink="http://www.w3.org/1999/xlink"><linearGradient id="a" x1="0%" x2="100%" y1="53.964826%" y2="46.035174%"><stop offset="0" stop-color="#09b3bf"/><stop offset="1" stop-color="#5fe3c2"/></linearGradient><path d="m60.4075475 32.9601293 1.1455475 3.425192c.069489.2211492.1226276.4454426.1614598.6728803h.018394c.0378103-.2274377.0919709-.4517311.1614599-.6728803l1.1363504-3.425192h.7868614l-2.4137226 6.5820701-.7398541-.0020962.6918247-1.8750514-1.7259853-4.7049225zm-2.1602921.5775034c.4230658.4643083.6223359 1.0963129.5456934 1.7251732.0858396.6267639-.1021897 1.2608646-.5140144 1.7335578-.4128468.4716452-1.0065693.7357664-1.6258394.720045-.2789782.001048-.5548906-.040876-.820584-.1226279v1.9473704l-.7183942-.001048v-6.3483436c.4670073-.2190529.9738685-.3322479 1.4878832-.3311998.6192701-.0345873 1.2221898.2138125 1.6452554.6770729zm30.6508029.0020962c.4220438.4632603.6213139 1.0942167.5446716 1.723077.0868614.6267639-.1001459 1.2608646-.5119708 1.7325096-.4118247.4726934-1.0055475.7368146-1.6248174.7210932-.2769344.001048-.5538687-.040876-.820584-.1226279v1.9473704l-.7173724-.001048v-6.3483436c.4659855-.2190529.9738688-.3322479 1.4868614-.3311998.6192701-.0335391 1.221168.2148607 1.6432116.6791691zm-13.9632116-.6760247c1.2743066 0 1.9610218 1.0470522 1.9610218 2.4441699 0 1.3981659-.6897809 2.454651-1.9610218 2.454651-1.252986 0-1.9370429-1.029796-1.9574843-2.3945703l-.0004719-.0600807c0-1.3971177.6836497-2.4441699 1.9579562-2.4441699zm17.6072992 0c1.2743066 0 1.9559124 1.0470522 1.9559124 2.4441699 0 1.3981659-.6826276 2.454651-1.9559124 2.454651-1.2549987 0-1.9371038-1.029796-1.9574857-2.3945703l-.0004704-.0600807c0-1.3971177.6826278-2.4441699 1.9579561-2.4441699zm40.9392701.5680703c.353577.3888453.521168.9170878.458832 1.4442823 0 .0985214 0 .2022834-.008175.3144301l-3.14438.4622122c-.009197.4150477.152263.8164701.44657 1.1036496.293284.2882277.692846.4360097 1.09854.4077111.434306.0052405.864525-.093281 1.25489-.2882277l.221752.5492046c-.446569.219053-.93708.3322479-1.4327.3322479l-.075621.001048c-.629489.0335393-1.240584-.2232454-1.666715-.6969866-.426132-.4747896-.622336-1.1193711-.536497-1.7566162 0-1.4432341.760292-2.4452181 2.00803-2.4452181.519124-.0251543 1.021897.1844657 1.375474.5722628zm-27.376642-.0020962c.353576.3888452.521168.918136.458832 1.4442823 0 .0995696 0 .2022833-.009197.3144301l-3.143358.4622122c-.011241.4160959.150219.8175183.444526 1.1057458.294306.2882277.693868.4360097 1.099562.4056149.435328.0052404.865547-.0932809 1.255912-.2882277l.221752.5492046c-.447591.219053-.93708.3322479-1.432701.3322479l-.07562.001048c-.629489.0335393-1.241606-.2232454-1.666716-.6969866-.426131-.4747894-.623357-1.1193712-.537518-1.7566162 0-1.4421861.761314-2.4452181 2.009051-2.4452181.518103-.0251543 1.021898.1844657 1.375475.5722628zm11.832554-.5722628c1.274307 0 1.955913 1.0470522 1.955913 2.4452181 0 1.3971177-.684672 2.4536028-1.955913 2.4536028-1.27124 0-1.953868-1.0554371-1.953868-2.4515066l-.003066-.0020962c0-1.3981659.682628-2.4452181 1.956934-2.4452181zm10.883212.3322479-.248321.5167134c-.292263-.1760808-.625401-.2725061-.964672-.2798428-.555912 0-.869635.3049972-.869635.6980349 0 .4936552.375037.6728803.881898.8636347.68365.2609769 1.350949.5408197 1.350949 1.4138873.006132.8122776-.626423 1.3541455-1.710657 1.3541455-.476204-.0041924-.945255-.1184354-1.371387-.3353921l.255475-.5596856c.341314.1823695.718394.2829872 1.103649.2966124.589636 0 .983066-.2966124.983066-.7598727 0-.4936552-.39343-.6906981-.931971-.887741l-.082865-.0316267c-.620347-.2398706-1.20677-.5463225-1.20677-1.3581543 0-.7336701.554891-1.2619127 1.530803-1.2619127.447591-.0083849.890073.1069063 1.280438.3311997zm-6.894744-.2326783v3.1568781c0 .6980348.353576 1.0292345 1.061751 1.0292345.331095.0073367.660146-.0461164.972847-.1561669v-4.0299457h.70511v4.4638592c-.507884.2201012-1.054599.3343441-1.606424.3353921h-.074598c-1.145548 0-1.77708-.5156654-1.77708-1.6497099v-3.1495414zm-55.9846719-1.3730114v1.3709151h.991241v.5492047h-.9891972v2.8990454c-.0132847.1876099.0572263.3710276.1910948.499944.1338688.1289161.3178103.1897059.4997081.1645516.1011678.0010482.2023358-.0136252.2983943-.0429722v.6099945c-.14.0524051-.2881753.0796557-.4373724.0796557l-.0265693.0020962c-.3382483.0356353-.6724087-.0880404-.909489-.3374884-.2360585-.2473517-.3484672-.5932248-.3045257-.9370017v-2.9346809h-.6683211v-.5502526h.6642336v-1.1371888zm13.9560583 1.275538c1.2129927 0 1.8332848.5764552 1.8332848 1.5637658v3.2449185l-.7061315-.0041924v-3.1799363c0-.6299083-.3760583-1.0302827-1.1179562-1.0302827-.3341606-.0041923-.6672992.0524051-.9830656.166648v4.0446192h-.7183942v-4.4743404c.5364963-.2242934 1.1118249-.3364401 1.6922627-.3311997zm29.6759126 0c.152263 0 .303503.0115292.453723.0335393l-.137957.6131387c-.13489-.0262026-.271825-.0377317-.408759-.0335393-.29635-.0062886-.590657.0429722-.869635.1477822v4.0446192l-.719416-.0010482v-4.4732922c.533431-.2232454 1.105694-.3353921 1.682044-.3311997zm-13.4614601.0995696.8982483 3.3256222c.0602919.238967.1083212.4800301.1440876.7221412h.0183943s.068467-.4014225.1532845-.7221412l.940146-3.3256222h.6846716l.9319708 3.3256222c.0848174.3144303.16146.7221412.16146.7221412h.018394c.032701-.2421111.078686-.4842224.137956-.7221412l.914599-3.3256222h.705109l-1.391825 4.7049223h-.7296347l-.9391241-3.281602c-.0572263-.2127645-.1032116-.4286731-.1359124-.6456298h-.0183942s-.05927.3490173-.1440874.6456298l-.9401461 3.281602h-.7275912l-1.4-4.7049223zm15.7454011-2.1486057v2.3446004c.339271-.1771289.714307-.2735542 1.095475-.2819389 1.061752 0 1.715766.5502527 1.715766 1.5637656v3.2218604h-.708175l-.002044-3.1631668c0-.6906982-.444525-1.0229459-1.145547-1.0229459-.335183.0020963-.663212.0922329-.955475.260977v3.9293282h-.717372v-6.85248zm-43.0024812 0v2.3446004c.3392701-.1771289.7132846-.272506 1.0934305-.2798427 1.0627738 0 1.7167884.5492045 1.7167884 1.5637656v3.2218604h-.7091971l.0010219-3.1673592c0-.690698-.4445255-1.0229459-1.1455473-1.0229459-.3351827.0020962-.6652556.0922329-.9564964.260977v3.9293281h-.7183942v-6.8503837zm23.6865693 2.6495977c-.8379562-.0062887-1.2477372.752536-1.2477372 1.8373198v.0041923c0 1.0847839.409781 1.858282 1.2477372 1.858282.8369342 0 1.2456935-.7766424 1.2456935-1.858282 0-1.0816394-.4087593-1.8415121-1.2456935-1.8415121zm-17.6072992 0c-.8369344-.0062887-1.2467154.752536-1.2467154 1.8373198l-.0010219.0041923c0 1.0847839.4097809 1.858282 1.2477373 1.858282.8379562 0 1.2467153-.7766424 1.2467153-1.858282 0-1.0816394-.4108029-1.8415121-1.2467153-1.8415121zm43.0024821-.0052427c-.832847-.001046-1.24365.7577787-1.24365 1.8425625l-.003066-.0020962c0 1.0858319.408759 1.85933 1.246716 1.85933.837956 0 1.246715-.7776905 1.246715-1.85933 0-1.0816396-.410803-1.8404663-1.246715-1.8404663zm-30.6620443-.0063169h-.038832c-.2575183-.0010176-.5129927.0513873-.750073.1530531v3.4136628c.2493431.0827999.509927.1236757.7725547.1226663.9656934 0 1.470511-.7955468 1.470511-1.874042s-.5068614-1.8153402-1.4541607-1.8153402zm-30.6640876.0000304h-.03781c-.2554746 0-.5078834.0513569-.7439417.1530227v3.4136628c.249343.0827999.509927.1236757.7725548.1226663.9646714 0 1.4705108-.7955468 1.4705108-1.874042s-.5109488-1.8153098-1.4613139-1.8153098zm48.1160589-.0251543c-.814453-.0041925-1.331533.6582069-1.351971 1.7283174l2.510803-.3615947c-.010219-.930713-.472117-1.3667227-1.158832-1.3667227zm27.372554 0c-.814452-.0041925-1.334598.6582069-1.35197 1.7283174l2.50978-.3615947c-.010218-.930713-.471094-1.3667227-1.15781-1.3667227zm-79.1592697-32.82755014 7.6499269 13.63473704-8.1486131 14.3380124-7.6856935.0052404 8.5308031-14.3390604-7.9994162-13.63892944zm-9.6712409-.0010481v6.13033875h-6.7312409v21.84345879l-6.7240877.0052404v-21.84765109h-6.7291971v-6.13138685zm-31.9618978-.46745275c3.92 0 6.880438.94329029 9.2277372 3.33924762l-4.2347445 4.32655812c-1.7290511-1.76604904-3.9976643-1.6476137-5.1912409-1.6476137-2.34525549 0-3.30583943 1.37615571-3.30583943 2.59509638.00408759.48841476.19824818.95481939.53854015 1.29754817.51605838.4873667 1.18131386.7787386 1.88335768.824855l3.3078832.4726932c1.9927007.1572151 3.8811679.9705409 5.3833577 2.3173498 1.4602919 1.4526671 2.0376643 3.5352424 2.0376643 6.1292907 0 5.683848-4.8100731 8.787273-10.5705111 8.787273-4.19182477-.001048-7.61620434-.7871233-10.38248171-3.6924574l4.30014598-4.4030694c1.42248175 1.4526671 3.9240876 1.963092 6.11299273 1.963092 2.6456934 0 3.9210219-.9003182 3.9210219-2.5133447.0337226-.5984653-.1553285-1.1874976-.5293431-1.6486618-.5048175-.4464907-1.1404379-.7085158-1.8067153-.7472955l-3.30992703-.4726932c-2.0478832-.1813214-3.97927007-1.0512447-5.49270073-2.4735168-1.33562044-1.5428037-2.01416058-3.5666854-1.88540146-5.62305821.0010219-5.10320044 3.76773723-8.83129328 9.99620442-8.83129328zm99.5696354 5.99408573 4.87343 8.85435146 4.872409-8.85435146h2.714161l-6.329635 10.92644586 6.784379 11.5018528-2.715182.0052405-5.324088-9.4203255-5.365985 9.4213737-2.646716.001048 6.717957-11.5091895-6.292847-10.92644586zm29.09343-.00104811v2.14126896h-6.358248v20.29331831l-2.340146.0020962v-20.29541451h-6.350073v-2.14126896zm-33.784963 0v2.14336515h-11.2950368v7.91001312h9.6211678v2.1370765h-9.6109487v8.0997193h11.2950367v2.1444132h-13.6341608l.0010218-22.43458727zm-30.8909492 0 11.6598541 17.92880407v-17.92880407h2.3462774v22.43458727h-2.2277373l-11.6547446-17.9979786v17.9927381h-2.3442336v-22.42934677zm-12.9821897 11.20083847 6.3827737 11.2262026-7.3637956-.0062887-2.590511-4.9606587zm6.0784525-16.73732359-5.959708 10.51978289-3.7064233-6.52756877 2.0213139-3.99221412z" fill="url(#a)"/></svg>