<svg fill="none" height="38" viewBox="0 0 152 38" width="152" xmlns="http://www.w3.org/2000/svg"><path d="m49.0808 14.8596c0-2.7103-2.6515-5.58882-7.2399-5.58882-5.1525 0-10.8128 3.75702-11.6778 11.25232-.8839 7.5701 3.855 10.9346 8.6314 10.9346s7.2775-1.8505 9.835-4.3178c-2.2002-2.7476-5.0397-1.4766-5.5851-1.1962-.6017.299-1.3727.7103-2.9524.7103-1.8428 0-3.7233-.8225-3.7233-4.243 11.8095-1.1589 12.7121-4.8412 12.7121-7.5514zm-5.8483.4486c-.0753.8411-.4137 2.2803-6.3937 3.0841 1.2599-4.4486 3.667-4.7851 4.7764-4.7851 1.0343 0 1.6925.8038 1.6173 1.701zm-20.0084.7289s-2.5387 7.9253-2.7456 8.5795c-.0752-.6729-1.9369-14.89722-1.9369-14.89722-4.3251 0-6.6381 3.06542-7.8604 6.29902 0 0-3.08402 7.944-3.34729 8.6169-.0188-.6169-.47012-8.5234-.47012-8.5234-.26327-3.9626-3.91142-6.37383-6.86379-6.37383l3.57293 21.55143c4.53198-.0187 6.97657-3.0654 8.25537-6.2991 0 0 2.7267-7.0093 2.8395-7.3271.0188.2991 1.9557 13.6262 1.9557 13.6262 4.5508 0 6.9955-2.8598 8.3118-5.9813l6.3749-15.57013c-4.4944 0-6.8638 3.04673-8.0861 6.29903zm42.5554-6.8037c-2.8019 0-4.9457 1.514-6.7509 3.7383v-.0187l1.6172-12.95324414c-3.7234 0-6.751 3.21495414-7.3339 8.00000414l-2.8207 23.12154c2.1437 0 4.4191-.6169 5.6414-2.187 1.0907 1.4019 2.7267 2.5234 5.1526 2.5234 6.2808 0 10.5871-7.2523 10.5871-14.0561-.0376-6.2056-3.0652-8.1682-6.0928-8.1682zm-.5829 11.1215c-.6582 3.7944-2.7831 6.3738-4.8329 6.3738-2.0685 0-2.9523-.9159-2.9523-.9159.3949-3.3271.6393-5.3644 1.3915-7.1215.7522-1.757 2.5387-4.5607 4.4004-4.5607 1.824 0 2.6515 2.4112 1.9933 6.2243zm22.359-10.61683h-4.3815l.0188-.2243c.3009-2.84112.9778-4.33644 3.2156-4.57943 1.5232-.14954 2.2002-.93458 2.3694-1.7944.1317-.67289.5454-3.009343.5454-3.009343-8.8007-.0560748-11.565 3.719623-12.2796 9.476633l-.0188.13084h-.0941c-1.4291 0-3.0087 1.60753-3.272 3.64483l-.094.7477h2.9335l-2.4634 20.2243-.7522 3.6262c.094 0 .2068.0187.3009.0187 4.1182-.1496 6.7509-3.3832 7.3339-8.0748l1.9181-15.7944h1.3727c1.354 0 2.9336-1.3458 3.2157-3.5888zm22.7914-.37383c-5.058 0-9.835 3.70096-11.3016 9.51406-1.4668 5.813.7522 12.6915 8.1986 12.6915 7.428 0 11.716-7.1588 11.716-13.1214 0-5.9253-4.043-9.08416-8.613-9.08416zm2.05 10.80376c-.263 2.6355-1.429 6.6355-4.626 6.6355-3.216 0-2.764-4.6729-2.445-6.8972.339-2.3738 1.674-5.757 4.551-5.757 2.576 0 2.821 3.0467 2.52 6.0187zm31.555-4.1309s-2.539 7.9253-2.746 8.5795c-.075-.6729-1.937-14.89722-1.937-14.89722-4.325 0-6.638 3.06542-7.86 6.29902 0 0-3.084 7.944-3.348 8.6169-.018-.6169-.47-8.5234-.47-8.5234-.263-3.9626-3.911-6.37383-6.864-6.37383l3.555 21.55143c4.532-.0187 6.976-3.0654 8.255-6.2991 0 0 2.727-7.0093 2.821-7.3271.037.2991 1.955 13.6262 1.955 13.6262 4.551 0 6.996-2.8598 8.312-5.9813l6.375-15.57013c-4.476 0-6.845 3.04673-8.048 6.29903zm-52.2593-15.906503-3.6858 29.551403-.7522 3.6449c.0941 0 .2069.0187.3009.0187 3.9678-.0561 6.7886-3.5141 7.3151-7.8692l2.125-16.95328c.6393-5.17757-2.4635-8.392523-5.303-8.392523z" fill="#020202"/></svg>