<svg enable-background="new 0 0 190 50" height="104.31332" viewBox="0 0 103.17322 104.31332" width="103.17322" xmlns="http://www.w3.org/2000/svg"><g fill="#0072c6"><path d="m64.566509 22.116383v20.404273l7.130526 4.489881c.188058.05485.595516.05877.783574 0l30.688681-20.690278c0-2.44867-2.28412-4.203876-3.573094-4.203876z"/><path d="m64.566509 50.13308 6.507584 4.470291c.916782.673874 2.021622 0 2.021622 0-1.100922.673874 30.077495-20.035993 30.077495-20.035993v37.501863c0 4.082422-2.61322 5.794531-5.551621 5.794531h-33.058998v-27.730692z"/><g transform="matrix(3.9178712 0 0 3.9178712 -13.481403 -41.384473)"><path d="m11.321 20.958c-.566 0-1.017.266-1.35.797s-.5 1.234-.5 2.109c0 .888.167 1.59.5 2.106.333.517.77.774 1.31.774.557 0 .999-.251 1.325-.753s.49-1.199.49-2.09c0-.929-.158-1.652-.475-2.169-.317-.516-.75-.774-1.3-.774z"/><path d="m3.441 13.563v20.375l15.5 3.25v-26.625zm10.372 13.632c-.655.862-1.509 1.294-2.563 1.294-1.027 0-1.863-.418-2.51-1.253-.646-.836-.97-1.924-.97-3.266 0-1.417.328-2.563.985-3.438s1.527-1.313 2.61-1.313c1.023 0 1.851.418 2.482 1.256.632.838.948 1.942.948 3.313.001 1.409-.327 2.545-.982 3.407z"/></g></g></svg>