<svg fill="none" height="100" viewBox="0 0 100 100" width="100" xmlns="http://www.w3.org/2000/svg"><path d="m50 100c27.6142 0 50-22.3858 50-50s-22.3858-50-50-50-50 22.3858-50 50 22.3858 50 50 50z" fill="#333"/><path d="m50 93.75c24.1625 0 43.75-19.5875 43.75-43.75s-19.5875-43.75-43.75-43.75-43.75 19.5875-43.75 43.75 19.5875 43.75 43.75 43.75z" fill="#fff" stroke="#333"/><g fill="#333"><path d="m50 55.2083c2.8765 0 5.2083-2.3319 5.2083-5.2083 0-2.8765-2.3318-5.2084-5.2083-5.2084s-5.2083 2.3319-5.2083 5.2084c0 2.8764 2.3318 5.2083 5.2083 5.2083z"/><path d="m67.6781 35.4469c1.7259 0 3.125-1.3991 3.125-3.125s-1.3991-3.125-3.125-3.125-3.125 1.3991-3.125 3.125 1.3991 3.125 3.125 3.125z"/><path d="m50 30.2083c2.8765 0 5.2083-2.3319 5.2083-5.2083 0-2.8765-2.3318-5.2084-5.2083-5.2084s-5.2083 2.3319-5.2083 5.2084c0 2.8764 2.3318 5.2083 5.2083 5.2083z"/><path d="m75 55.2083c2.8765 0 5.2083-2.3319 5.2083-5.2083 0-2.8765-2.3318-5.2084-5.2083-5.2084s-5.2083 2.3319-5.2083 5.2084c0 2.8764 2.3318 5.2083 5.2083 5.2083z"/><path d="m67.6781 72.8865c2.8765 0 5.2083-2.3318 5.2083-5.2083s-2.3318-5.2084-5.2083-5.2084-5.2083 2.3319-5.2083 5.2084 2.3318 5.2083 5.2083 5.2083z"/><path d="m50 80.2083c2.8765 0 5.2083-2.3319 5.2083-5.2083 0-2.8765-2.3318-5.2084-5.2083-5.2084s-5.2083 2.3319-5.2083 5.2084c0 2.8764 2.3318 5.2083 5.2083 5.2083z"/><path d="m32.3219 72.8865c2.8764 0 5.2083-2.3318 5.2083-5.2083s-2.3319-5.2084-5.2083-5.2084c-2.8765 0-5.2084 2.3319-5.2084 5.2084s2.3319 5.2083 5.2084 5.2083z"/><path d="m25 55.2083c2.8765 0 5.2083-2.3319 5.2083-5.2083 0-2.8765-2.3318-5.2084-5.2083-5.2084s-5.2083 2.3319-5.2083 5.2084c0 2.8764 2.3318 5.2083 5.2083 5.2083z"/><path d="m32.3219 37.5302c2.8764 0 5.2083-2.3319 5.2083-5.2083 0-2.8765-2.3319-5.2084-5.2083-5.2084-2.8765 0-5.2084 2.3319-5.2084 5.2084 0 2.8764 2.3319 5.2083 5.2084 5.2083z"/><path d="m46.3167 46.3167 19.5198-15.8365 3.6833 3.6834-15.8364 19.5198z"/></g></svg>