<svg fill="none" height="11" viewBox="0 0 16 11" width="16" xmlns="http://www.w3.org/2000/svg"><path clip-rule="evenodd" d="m.999907 4.10129h11.589293l-2.2887-2.28871c-.39053-.39053-.39053-1.023694 0-1.414218.3905-.39052464 1.0237-.390524 1.4142 0l3.9924 3.992398c.1957.19571.2933.45234.2929.70884.0004.25648-.0972.5131-.2929.7088l-4 3.99997c-.3905.39053-1.0237.39053-1.4142 0s-.3905-1.02369 0-1.41422l2.2929-2.29286h-11.585893c-.552285 0-1.00000046-.44772-1.00000046-1 0-.55229.44771546-1 1.00000046-1z" fill="#292D34" fill-rule="evenodd"/></svg>