<svg width="16" height="10" viewBox="0 0 16 10" fill="none" xmlns="http://www.w3.org/2000/svg">
<path fill-rule="evenodd" clip-rule="evenodd" d="M15 3.99582H3.41067L5.69939 1.70711C6.08991 1.31658 6.08991 0.683417 5.69939 0.292893C5.30886 -0.0976313 4.6757 -0.0976306 4.28517 0.292894L0.292771 4.2853C0.0970697 4.481 -0.000560906 4.73763 -0.00012059 4.99413C-0.000551526 5.25061 0.0970791 5.50723 0.292771 5.70293L4.29274 9.7029C4.68327 10.0934 5.31643 10.0934 5.70696 9.7029C6.09748 9.31237 6.09748 8.67921 5.70696 8.28868L3.41409 5.99582H15C15.5523 5.99582 16 5.5481 16 4.99582C16 4.44354 15.5523 3.99582 15 3.99582Z" fill="#292D34"/>
</svg>