<svg fill="none" height="58" viewBox="0 0 58 58" width="58" xmlns="http://www.w3.org/2000/svg"><circle cx="28.6802" cy="28.6802" fill="#fd71af" r="28.4188"/><path d="m35.3216 30.7318-10.2338 5.6118c-.0329.018-.0661.0353-.0995.0518-.3547.1761-.7581.2757-1.186.2757-1.4159 0-2.5637-1.0902-2.5637-2.4349v-11.363c0-.4723.1416-.9132.3866-1.2864.7254-1.116 2.2587-1.4886 3.4626-.8284l10.2334 5.6115c.4351.2059.8135.5314 1.0747.9612.2354.3873.3461.8105.3439 1.2275-.0005.4122-.1114.8297-.3439 1.2123-.2612.4296-.6394.755-1.0743.9609z" fill="#fff"/></svg>