<svg fill="none" height="148" viewBox="0 0 184 148" width="184" xmlns="http://www.w3.org/2000/svg"><path d="m-.0000257 147.162.00000439-25.121c10.05012131-2.617 17.69102131-6.281 22.92252131-10.991 5.3693-4.71 9.6372-10.663 12.8036-17.8597 3.1665-7.3271 4.7498-16.2243 4.7498-26.6916-13.079 0-22.7161-3.5327-28.9114-10.5982-6.19526-7.0654-9.2929-14.5887-9.2929-22.57 0-9.2898 3.44183-17.1402 10.3255-23.55143 6.8836-6.41122 14.9375-9.616834 24.1616-9.616832 11.8399.000002 22.0277 4.906552 30.5634 14.719662 8.6734 9.6822 13.0101 22.9626 13.0101 39.8411 0 14.9159-3.373 28.9159-10.119 42-6.746 12.953-15.97 24.075-27.6723 33.364-11.5645 9.159-25.7448 14.851-42.5409257 17.075zm103.4610257 0v-25.121c10.05-2.617 17.76-6.281 23.129-10.991 5.37-4.71 9.637-10.663 12.804-17.8597 3.166-7.3271 4.75-16.2243 4.75-26.6916-13.079 0-22.785-3.5327-29.118-10.5981-6.195-7.0655-9.293-14.5888-9.293-22.5701 0-9.2897 3.442-17.1402 10.325-23.55141 6.884-6.41123 14.869-9.616836 23.955-9.616834 12.116.000002 22.441 4.906554 30.977 14.719644 8.673 9.6822 13.01 22.9626 13.01 39.8411 0 14.9159-3.442 28.9159-10.325 42-6.746 12.953-15.971 24.075-27.673 33.364-11.564 9.159-25.745 14.851-42.541 17.075z" fill="#fff"/></svg>