<svg width="15" height="14" viewBox="0 0 15 14" fill="none" xmlns="http://www.w3.org/2000/svg">
<path fill-rule="evenodd" clip-rule="evenodd" d="M7.72055 0.400394L9.47617 4.13521L13.5708 4.6457C13.9499 4.69455 14.2273 5.0444 14.1786 5.42374C14.154 5.60862 14.0617 5.76889 13.9304 5.88106L10.9498 8.67231L11.7278 12.7279C11.8005 13.1072 11.5527 13.4719 11.1732 13.5448C11.008 13.5739 10.8427 13.5448 10.7065 13.467L7.08831 11.4782L3.47543 13.467C3.13516 13.6566 2.71204 13.5303 2.52735 13.1946C2.44449 13.0439 2.42514 12.8785 2.45445 12.7279L3.22742 8.67231L0.217653 5.84687C-0.0598561 5.5842 -0.0745113 5.14191 0.188155 4.86459C0.304833 4.73814 0.455894 4.67013 0.611277 4.65059V4.6457L4.70571 4.13521L6.46114 0.400394C6.62179 0.0503608 7.03532 -0.0954396 7.38517 0.065016C7.54074 0.137916 7.65272 0.259479 7.72055 0.400394Z" fill="url(#paint0_linear)"/>
<defs>
<linearGradient id="paint0_linear" x1="0" y1="0" x2="0" y2="13.5559" gradientUnits="userSpaceOnUse">
<stop stop-color="#FBD249"/>
<stop offset="1" stop-color="#F5A623"/>
</linearGradient>
</defs>
</svg>