<svg fill="none" height="45" viewBox="0 0 45 45" width="45" xmlns="http://www.w3.org/2000/svg"><g clip-rule="evenodd" fill="#fff" fill-rule="evenodd"><path d="m22.4985 3.82171c-4.9888 0-9.6909 1.94315-13.20795 5.47023-3.53615 3.52706-5.4667 8.21776-5.4667 13.20846 0 4.9925 1.93055 9.6832 5.4667 13.2122 3.51705 3.5252 8.21915 5.4664 13.20795 5.4664 4.9889 0 9.691-1.9431 13.208-5.4702 7.3017-7.2835 7.3017-19.1334 0-26.41686-3.517-3.52708-8.2191-5.47023-13.208-5.47023zm.0001 41.17829c-6.021 0-11.6597-2.3387-15.92218-6.5861-4.24338-4.2512-6.5944421-9.9029-6.5753278-15.9139 0-6.0129 2.3319478-11.6627 6.5753278-15.91011 4.26248-4.24932 9.92028-6.58989 15.92218-6.58989 6.0211 0 11.6598 2.34057 15.9223 6.58989 8.7734 8.77191 8.7734 23.04831 0 31.82021-4.2625 4.2493-9.9012 6.5899-15.9223 6.5899z"/><path d="m11.986 33.9622c-.2485 0-.4779-.0936-.669-.2809-6.17396-6.1638-6.17396-16.1967 0-22.3643 6.1739-6.16192 16.2089-6.16192 22.3637 0 6.1739 6.1657 6.1739 16.1967 0 22.3605-.3632.3745-.9748.3745-1.338 0-.3823-.3726-.3823-.9763 0-1.3508 5.4094-5.4187 5.4094-14.2383 0-19.6589-5.4285-5.41863-14.2593-5.41863-19.6686 0-5.42848 5.4225-5.42848 14.2421 0 19.6627.3632.3745.3632.9782 0 1.3508-.1912.1873-.4396.2809-.6881.2809z"/><path d="m22.4984 31.8017c-2.0644 0-3.7464 1.6757-3.7464 3.743 0 2.0654 1.682 3.7392 3.7464 3.7392 2.0643 0 3.7464-1.6738 3.7464-3.7392 0-2.0673-1.6821-3.743-3.7464-3.743z"/><path d="m22.9033 36.8187c.7455 0 1.4336-.4204 1.7585-1.1292l7.1679-16.0018c.4205-.963 0-2.0941-.9748-2.5259-.9557-.4357-2.0835.0038-2.5231.9629l-7.1679 16.0019c-.4205.9629 0 2.094.9748 2.5259.2485.1127.5161.1662.7646.1662z"/></g></svg>