<svg fill="none" height="45" viewBox="0 0 40 45" width="40" xmlns="http://www.w3.org/2000/svg"><g clip-rule="evenodd" fill="#fff" fill-rule="evenodd"><path d="m19.6787 3.50772c-4.7875 0-9.5046.76212-14.04564 2.26702-1.16167.3661-2.11212 1.64746-2.11212 2.80913v17.37223c0 1.5049.93285 4.1556 2.14733 5.4388 6.37163 6.537 10.49023 10.0854 14.01043 10.0854 3.5026 0 7.6213-3.5502 14.0105-10.103 1.2144-1.2656 2.1297-3.9163 2.1473-5.4353v-17.35461c0-1.12295-1.0033-2.46063-2.0945-2.80561-4.5587-1.51194-9.2934-2.27406-14.0633-2.27406zm.0004 41.49228c-4.7875 0-9.3286-3.7578-16.54502-11.1626-1.95371-2.0505-3.1329865-5.6077-3.1329865-7.873v-17.3775c-.0176011-2.69296 1.9537165-5.34368 4.5410765-6.16213 9.75103-3.228038 20.48763-3.240359 30.29143.00704 2.517.79733 4.5235 3.50613 4.5235 6.15509v17.3635c-.0176 2.2811-1.1969 5.8435-3.133 7.8712-7.234 7.4188-11.7575 11.1784-16.545 11.1784z"/><path d="m7.92102 9.66633v16.25637c0 .5263.58084 2.0575.89766 2.3955 2.55212 2.619 8.53652 8.7618 10.85982 8.7618 2.3058 0 8.2549-6.1076 10.8071-8.7143.3696-.3925.9328-1.9379.9504-2.4289v-16.27575c-7.6212-2.32334-15.8233-2.33566-23.51498.00528zm11.75778 29.17337c-2.8338 0-7.5333-4.5922-12.12718-9.2987-.68644-.7181-1.37289-2.6982-1.39049-3.6064v-16.91644c0-.38194.24642-.72164.59844-.83781 8.43093-2.70704 17.49543-2.69296 25.82073-.00352.3697.11793.6161.45587.6161.83781v16.93576c-.0176.9117-.7393 2.8919-1.4257 3.61-4.5939 4.7118-9.2758 9.2793-12.0919 9.2793z"/><path d="m17.937 26.8612c-.4928 0-.9505-.1971-1.2849-.5474l-2.8866-3.0309c-.6688-.704-.6336-1.8182.0705-2.4888.704-.6688 1.8129-.6442 2.4817.0616l1.5137 1.5894 5.1219-6.2343c.616-.7481 1.7249-.8625 2.4642-.2447.7568.6178.8624 1.7267.2464 2.4783l-6.3716 7.7726c-.3168.389-.7921.6248-1.3025.6424z"/></g></svg>