<svg fill="none" height="45" viewBox="0 0 46 45" width="46" xmlns="http://www.w3.org/2000/svg"><g clip-rule="evenodd" fill="#fff" fill-rule="evenodd"><path d="m17.6708 4.45903c-9.9442 2.66508-15.87575 12.92737-13.21071 22.87547 2.66503 9.9481 12.93201 15.8691 22.87621 13.204s15.8757-12.9274 13.2107-22.8754c-2.665-9.9481-12.932-15.86915-22.8762-13.20407zm10.6543 39.77047c-11.992 3.2139-24.34444-3.9223-27.554745-15.9057-3.210305-11.9835 3.919805-24.34109 15.911845-27.555014 11.9737-3.208976 24.3445 3.922314 27.5548 15.905714 3.2103 11.9835-3.9382 24.346-15.9119 27.555z"/><path d="m20.6369 15.531c-3.8375 1.0285-6.1365 4.995-5.1072 8.837 1.0297 3.8437 5.003 6.1273 8.8405 5.0988 3.8374-1.0284 6.1369-4.9931 5.1072-8.8369-1.0293-3.8419-5.0031-6.1273-8.8405-5.0989zm4.722 17.6265c-5.8854 1.5773-11.9446-1.9233-13.5191-7.8006s1.923-11.9391 7.8084-13.5164c5.8669-1.5724 11.9445 1.9233 13.519 7.8006s-1.9414 11.9441-7.8083 13.5164z"/><path d="m16.7081 15.924c-.5165.1384-1.0332-.1662-1.1696-.6755l-2.7599-10.30232c-.137-.51116.1587-1.03144.6752-1.16988.4982-.13351 1.0328.16427 1.1697.67543l2.7599 10.30237c.1365.5093-.1771 1.0364-.6753 1.1699z"/><path d="m24.2355 13.9061c-.5166.1384-1.0332-.1662-1.1697-.6755l-2.7599-10.30234c-.1369-.51115.1587-1.03143.6753-1.16988.5166-.13844 1.0327.16428 1.1696.67543l2.76 10.30239c.1364.5093-.1587 1.0314-.6753 1.1699z"/><path d="m24.0407 43.2951c-.5165.1384-1.0332-.1661-1.1696-.6754l-2.76-10.3024c-.1369-.5112.1588-1.0314.6753-1.1699.4982-.1335 1.0327.1643 1.1697.6754l2.7599 10.3024c.1365.5093-.1771 1.0364-.6753 1.1699z"/><path d="m31.5683 41.2772c-.5166.1384-1.0332-.1662-1.1696-.6755l-2.76-10.3023c-.1369-.5112.1587-1.0315.6753-1.1699s1.0327.1643 1.1697.6754l2.7599 10.3024c.1365.5093-.1587 1.0314-.6753 1.1699z"/><path d="m40.5865 14.6345-10.3132 2.764c-.4981.1335-1.0332-.1661-1.1696-.6754-.137-.5112.1771-1.0364.6752-1.1699l10.3132-2.764c.4982-.1335 1.0327.1643 1.1697.6754.1364.5093-.1772 1.0364-.6753 1.1699z"/><path d="m42.6045 22.1672-10.3132 2.764c-.4982.1335-1.0332-.1661-1.1697-.6754-.1369-.5112.1772-1.0364.6753-1.1699l10.3132-2.764c.4981-.1335 1.0327.1643 1.1697.6755.1364.5093-.1772 1.0363-.6753 1.1698z"/><path d="m13.2073 21.9721-10.29472 2.759c-.51659.1385-1.03321-.1661-1.16965-.6754-.13693-.5112.15872-1.0314.6753-1.1699l10.29477-2.759c.5165-.1385 1.0327.1643 1.1696.6754.1364.5093-.1587 1.0314-.6753 1.1699z"/><path d="m15.2253 29.5053-10.29474 2.759c-.51658.1385-1.0332-.1661-1.16964-.6754-.13693-.5111.15871-1.0314.67529-1.1699l10.29469-2.759c.5166-.1384 1.0328.1643 1.1697.6754.1364.5093-.1587 1.0315-.6753 1.1699z"/></g></svg>