<svg fill="none" height="984" viewBox="0 0 1793 984" width="1793" xmlns="http://www.w3.org/2000/svg" xmlns:xlink="http://www.w3.org/1999/xlink"><linearGradient id="a" gradientUnits="userSpaceOnUse" x1="795" x2="115" y1="109" y2="983"><stop offset="0" stop-color="#8920fe"/><stop offset="1" stop-color="#7161fa"/></linearGradient><linearGradient id="b" gradientUnits="userSpaceOnUse" x1="259" x2="1739" y1="-26.9996" y2="911"><stop offset="0" stop-color="#8920fe" stop-opacity="0"/><stop offset=".471595" stop-color="#f928c6" stop-opacity=".54"/><stop offset="1" stop-color="#ff7e5b"/></linearGradient><path d="m-.00006072 983.375h1792.47006072v-376.386c0-35.415-8.93-70.258-25.97-101.304l-175.37-319.472c-25.46-46.379-72.46-76.925-125.18-81.361l-1156.528-97.29484c-53.248-4.47955-105.148 18.27644-137.929 60.47564l-149.3583 192.2692c-14.34681 18.469-22.13476072 41.189-22.13476072 64.576z" fill="url(#a)"/><path d="m-.00006072 983h1792.47006072v-376.386c0-35.415-8.93-70.258-25.97-101.304l-175.37-319.472c-25.46-46.379-72.46-76.925-125.18-81.361l-1156.528-97.29484c-53.248-4.47955-105.148 18.27644-137.929 60.47564l-149.3583 192.2692c-14.34681 18.469-22.13476072 41.189-22.13476072 64.576z" fill="url(#b)"/></svg>